<?xml version="1.0" standalone="no"?>
<!DOCTYPE svg PUBLIC "-//W3C//DTD SVG 20010904//EN"
 "http://www.w3.org/TR/2001/REC-SVG-20010904/DTD/svg10.dtd">
<svg version="1.0" xmlns="http://www.w3.org/2000/svg"
 width="128.000000pt" height="128.000000pt" viewBox="0 0 128.000000 128.000000"
 preserveAspectRatio="xMidYMid meet">
<metadata>
Created by potrace 1.14, written by Peter Selinger 2001-2017
</metadata>
<g transform="translate(0.000000,128.000000) scale(0.100000,-0.100000)"
fill="#000000" stroke="none">
<path d="M595 1133 c-53 -53 -33 -133 36 -148 20 -5 38 -1 54 9 24 16 27 15
55 -5 29 -22 30 -22 50 -4 21 19 21 19 1 27 -11 4 -32 29 -45 57 -14 27 -36
57 -48 65 -29 21 -82 20 -103 -1z"/>
<path d="M552 888 c-21 -41 -30 -70 -26 -85 10 -35 -100 -187 -149 -206 -9 -3
-18 -26 -22 -59 -9 -64 -13 -83 -20 -124 l-6 -32 78 -9 c43 -6 79 -9 81 -8 3
3 7 34 17 147 5 56 3 68 -11 76 -21 12 -13 37 27 82 l31 35 -6 -45 c-3 -25 -8
-74 -11 -110 -3 -36 -8 -89 -11 -117 -5 -44 -3 -53 10 -53 11 0 16 -10 17 -32
1 -18 3 -58 4 -88 2 -30 4 -74 4 -97 1 -39 3 -43 26 -43 14 0 26 6 26 13 1 6
3 21 4 32 1 11 3 51 3 89 3 122 16 55 21 -111 1 -18 7 -23 26 -23 19 0 25 5
26 23 1 12 3 38 4 57 2 19 4 64 5 100 2 49 8 70 22 83 10 10 17 21 14 25 -7
12 -25 188 -30 297 l-4 70 39 -84 c30 -64 37 -87 28 -97 -6 -8 -8 -14 -3 -14
4 0 0 -6 -9 -12 -15 -12 -14 -22 11 -120 14 -60 30 -108 35 -108 29 0 148 44
144 54 -2 6 -16 53 -32 104 -26 83 -33 95 -62 109 -22 10 -36 26 -44 51 -6 21
-17 51 -24 67 -7 17 -29 73 -48 125 l-35 95 -58 3 -59 3 -33 -63z m-94 -285
c2 -8 -5 -13 -17 -13 -21 0 -35 13 -24 24 10 10 36 3 41 -11z m376 -2 c6 -10
-16 -21 -41 -21 -13 0 -13 3 -3 15 14 17 36 20 44 6z"/>
</g>
</svg>
